<svg width="42" height="40" viewBox="0 0 42 40" fill="none" xmlns="http://www.w3.org/2000/svg">
<path d="M34.3095 34.9721L23.0753 24.1667C22.2089 24.8703 21.2033 25.4213 20.0585 25.8196C18.9137 26.2176 17.6956 26.4167 16.404 26.4167C13.2723 26.4167 10.6217 25.3726 8.4522 23.2846C6.28302 21.1968 5.19843 18.6668 5.19843 15.6946C5.19843 12.7224 6.28388 10.1922 8.4548 8.10417C10.6254 6.01611 13.2607 4.97208 16.3607 4.97208C19.4604 4.97208 22.0908 6.01611 24.2519 8.10417C26.4133 10.1922 27.494 12.7238 27.494 15.6988C27.494 16.8996 27.2918 18.051 26.8875 19.1529C26.4832 20.2546 25.8959 21.2685 25.1257 22.1946L36.3889 32.9721L34.3095 34.9721ZM16.375 23.6387C18.6614 23.6387 20.6048 22.8633 22.205 21.3125C23.8056 19.7617 24.6058 17.889 24.6058 15.6946C24.6058 13.5001 23.8056 11.6274 22.205 10.0763C20.6048 8.52542 18.6614 7.75 16.375 7.75C14.0727 7.75 12.1156 8.52542 10.5038 10.0763C8.89233 11.6274 8.08658 13.5001 8.08658 15.6946C8.08658 17.889 8.89233 19.7617 10.5038 21.3125C12.1156 22.8633 14.0727 23.6387 16.375 23.6387Z" fill="white"/>
</svg>
