<svg width="24" height="24" viewBox="0 0 24 24" fill="none" xmlns="http://www.w3.org/2000/svg">
<g clip-path="url(#clip0_87_123)">
<path d="M24 12C24 5.37097 18.629 0 12 0C5.37097 0 0 5.37097 0 12C0 17.9893 4.38822 22.9538 10.125 23.8548V15.4688H7.07662V12H10.125V9.35612C10.125 6.34888 11.9153 4.68774 14.6574 4.68774C15.9707 4.68774 17.3438 4.92193 17.3438 4.92193V7.87355H15.8303C14.34 7.87355 13.875 8.79871 13.875 9.74758V12H17.2031L16.6708 15.4688H13.875V23.8548C19.6117 22.9538 24 17.9893 24 12Z" fill="black"/>
</g>
<defs>
<clipPath id="clip0_87_123">
<rect width="24" height="23.8548" fill="white"/>
</clipPath>
</defs>
</svg>
